# xmcd
#
# Track frame offsets:
# 150
# 21552
# 43747
# 57702
# 75287
# 102460
# 122800
# 143723
# 158939
# 174158
# 195158
# 217915
# 245082
# 261760
#
# Disc length: 3668 seconds
#
#
# Revision: 0
# Processed by: cddbd v1.4PL0 Copyright (c) Steve Scherf et al.
# Submitted via: FreeRIP 2.35 
#
DISCID=c10e520e
DTITLE=Smaïla, Ras - True Story
DYEAR=2003
DGENRE=Bluesrock
TTITLE0=True story
TTITLE1=Stone free
TTITLE2=Don't want
TTITLE3=Zombie
TTITLE4=Vie bouga lage
TTITLE5=Old Uncle Tom is gone
TTITLE6=Up rooted
TTITLE7=See no evil
TTITLE8=Cross road
TTITLE9=Tribute to mama
TTITLE10=Love unit
TTITLE11=Funking blues
TTITLE12=Funky stimulation
TTITLE13=Nothing else to offer
EXTD=Dixiefrog Records
EXTT0=
EXTT1=
EXTT2=
EXTT3=
EXTT4=
EXTT5=
EXTT6=
EXTT7=
EXTT8=
EXTT9=
EXTT10=
EXTT11=
EXTT12=
EXTT13=
PLAYORDER=
